<svg width="57" height="56" viewBox="0 0 57 56" fill="none" xmlns="http://www.w3.org/2000/svg">
<path fill-rule="evenodd" clip-rule="evenodd" d="M5.54573 1.38947L14.329 7.24114L15.6655 11.2479L37.643 33.211L36.2287 34.6242L13.9174 12.3275L12.6486 8.52375L5.80057 3.96137L3.05211 6.70802L7.61749 13.5516L11.4238 14.8195L33.7351 37.1162L32.3209 38.5295L10.3434 16.5665L6.33403 15.2309L0.478516 6.45336L5.54573 1.38947Z" fill="#C4C4C4"/>
<path fill-rule="evenodd" clip-rule="evenodd" d="M39.2406 33.9779L32.9107 40.3037C33.0203 40.553 33.1527 40.8521 33.2858 41.152C33.4238 41.4628 33.5622 41.7735 33.676 42.0286C34.0364 42.0276 34.5056 42.0265 34.9753 42.0257C35.4633 42.0249 35.9527 42.0245 36.3214 42.0251C36.5054 42.0254 36.6613 42.026 36.7724 42.0269C36.8273 42.0273 36.8751 42.0279 36.911 42.0287C36.9277 42.029 36.949 42.0296 36.9695 42.0305C36.9777 42.0309 36.999 42.0319 37.0243 42.0342C37.0343 42.0351 37.0655 42.0381 37.1047 42.0448C37.1222 42.0478 37.1658 42.0557 37.2198 42.0717C37.2474 42.0803 37.3141 42.1048 37.3528 42.1216C37.4117 42.151 37.5596 42.2489 37.6429 42.3233L48.0638 52.7373C49.1039 53.7768 50.8037 53.7818 51.8617 52.7357C52.9024 51.6938 52.9018 49.9847 51.8601 48.9436L41.4392 38.5295C41.3647 38.4463 41.2668 38.2985 41.2373 38.2396C41.2205 38.2009 41.196 38.1343 41.1874 38.1067C41.1714 38.0527 41.1635 38.0092 41.1605 37.9917C41.1537 37.9526 41.1508 37.9213 41.1499 37.9113C41.1476 37.886 41.1466 37.8648 41.1462 37.8566C41.1452 37.8361 41.1447 37.8148 41.1443 37.7981C41.1436 37.7622 41.143 37.7145 41.1426 37.6596C41.1416 37.5485 41.1411 37.3927 41.1408 37.2089C41.1402 36.8404 41.1406 36.3513 41.1414 35.8637C41.1421 35.4217 41.1432 34.9801 41.1441 34.6293C40.8768 34.5372 40.5573 34.4274 40.2376 34.3178C39.8805 34.1954 39.5243 34.0738 39.2406 33.9779ZM42.1463 33.9176L43.1463 33.921L43.1444 34.5288C43.1434 34.8937 43.1422 35.3802 43.1414 35.867C43.1406 36.3541 43.1402 36.8405 43.1408 37.2055C43.1409 37.2769 43.141 37.3433 43.1412 37.4039L53.2743 47.5303C55.0977 49.3525 55.0977 52.3284 53.2743 54.1506L53.2711 54.1538C51.4372 55.97 48.4748 55.9746 46.6496 54.1506L36.5166 44.0243C36.4559 44.0241 36.3894 44.0239 36.318 44.0238C35.9528 44.0232 35.4661 44.0236 34.9787 44.0244C34.4915 44.0252 34.0047 44.0264 33.6395 44.0274L33.032 44.0293C33.032 44.0293 33.0313 44.0293 33.028 43.0299L32.115 43.4376L31.9093 42.977C31.786 42.7007 31.6217 42.3319 31.4577 41.9626C31.2939 41.5937 31.1298 41.2228 31.0072 40.9426C30.9461 40.803 30.8941 40.6831 30.8572 40.5964C30.8392 40.5541 30.8224 40.514 30.8095 40.4818C30.8038 40.4676 30.7944 40.4437 30.7853 40.4181C30.7819 40.4086 30.7709 40.3775 30.7603 40.3381C30.7562 40.3231 30.7423 40.2715 30.7336 40.2042C30.7296 40.1738 30.7208 40.0976 30.7281 40.0005C30.7281 39.9995 30.7282 39.9984 30.7283 39.9972C30.7322 39.9435 30.7545 39.6319 31.0183 39.3683L38.2608 32.1305C38.5101 31.8813 38.8046 31.8496 38.848 31.8449C38.8495 31.8448 38.8507 31.8446 38.8516 31.8445C38.9388 31.8343 39.0079 31.8381 39.0355 31.8399C39.0969 31.8441 39.1445 31.8531 39.1586 31.8558C39.1954 31.8628 39.2249 31.8706 39.2343 31.8731C39.2592 31.8797 39.2829 31.8868 39.2978 31.8914C39.3312 31.9016 39.3733 31.9151 39.4186 31.9299C39.5112 31.9601 39.6397 32.003 39.7897 32.0536C40.0907 32.1551 40.4895 32.2912 40.8863 32.4272C41.2835 32.5633 41.6802 32.6998 41.9774 32.8022L42.4724 32.9729L42.1463 33.9176ZM33.028 43.0299L32.115 43.4376L32.3805 44.0314L33.032 44.0293L33.028 43.0299ZM42.1463 33.9176L42.4724 32.9729L43.1486 33.2065L43.1463 33.921L42.1463 33.9176Z" fill="#C4C4C4"/>
<path fill-rule="evenodd" clip-rule="evenodd" d="M7.45083 49.9314L5.61415 51.7811L4.19495 50.3719L6.03163 48.5222L7.45083 49.9314Z" fill="#C4C4C4"/>
<path fill-rule="evenodd" clip-rule="evenodd" d="M36.5144 3.34953C39.257 0.595172 43.0571 -0.45964 46.6097 0.181985L46.6184 0.183558C48.442 0.529576 49.1228 2.77945 47.8163 4.08503L43.4526 8.44592C43.3351 8.56333 43.3351 8.75069 43.4526 8.86811L47.139 12.5521C47.2565 12.6695 47.444 12.6695 47.5615 12.5521L51.9315 8.18494C53.2132 6.92651 55.5002 7.53269 55.8314 9.40037C56.4587 12.9481 55.4043 16.7444 52.6621 19.4848C49.4708 22.674 45.2355 23.2113 41.3654 21.8712C41.3645 21.8709 41.3636 21.8706 41.3628 21.8703L41.6904 20.9261L41.3667 21.8716C41.3662 21.8715 41.3658 21.8713 41.3654 21.8712C41.1997 21.815 41.075 21.8608 41.0037 21.9321L35.0247 27.9072L33.6105 26.4939L39.5895 20.5188C40.2474 19.8613 41.1904 19.6989 42.0141 19.9805L42.018 19.9819C45.2854 21.114 48.6823 20.6354 51.2478 18.0715C53.5075 15.8134 54.3809 12.684 53.8621 9.74913C53.8621 9.74897 53.8621 9.74929 53.8621 9.74913C53.8437 9.64562 53.7781 9.56934 53.6613 9.53418C53.5409 9.49797 53.4223 9.52464 53.3352 9.60866L53.3394 9.60448L52.6323 8.89784L53.3331 9.61071C53.3338 9.61002 53.3345 9.60934 53.3352 9.60866L48.9757 13.9654C48.0771 14.8633 46.6233 14.8633 45.7248 13.9654L42.0384 10.2814C41.1398 9.38344 41.1398 7.93058 42.0384 7.03263L46.4021 2.67174C46.5799 2.49407 46.4807 2.19422 46.2483 2.14777C46.2502 2.14812 46.2521 2.14846 46.254 2.14881L46.4319 1.1654L46.2453 2.1472C46.2463 2.14739 46.2473 2.14758 46.2483 2.14777C43.316 1.62007 40.1893 2.49189 37.9314 4.76011L37.9295 4.76194C35.3645 7.32529 34.8852 10.7191 36.0172 13.9838C36.017 13.9832 36.0168 13.9825 36.0166 13.9819L35.0731 14.3131L36.0179 13.9858C36.0177 13.9851 36.0175 13.9845 36.0172 13.9838C36.3032 14.7996 36.1372 15.7565 35.4806 16.4127L29.5016 22.3877L28.0874 20.9745L34.0664 14.9994C34.1387 14.9271 34.1814 14.7915 34.1296 14.6444L34.1283 14.6405C32.7863 10.7725 33.3232 6.53934 36.5144 3.34953ZM36.5144 3.34953C36.5141 3.34985 36.5138 3.35017 36.5135 3.3505L37.2224 4.0553L36.5153 3.34866C36.515 3.34895 36.5147 3.34924 36.5144 3.34953Z" fill="#C4C4C4"/>
<path fill-rule="evenodd" clip-rule="evenodd" d="M1.43618 47.5952L19.9203 29.1362L21.334 30.55L2.85015 49.0087C2.85007 49.0088 2.84998 49.0089 2.8499 49.0089C1.71662 50.1417 1.7167 51.9821 2.85015 53.1149C3.98368 54.2476 5.82548 54.2476 6.95901 53.1149L25.3389 34.7471L26.7531 36.1603L8.37323 54.5281C6.45864 56.4415 3.35052 56.4415 1.43594 54.5281C-0.478645 52.6148 -0.478645 49.5087 1.43594 47.5954L1.43618 47.5952Z" fill="#C4C4C4"/>
</svg>
