<svg width="1428" height="612" viewBox="0 0 1428 612" fill="none" xmlns="http://www.w3.org/2000/svg">
<g filter="url(#filter0_d_1280_8)">
<path d="M58.7304 77.0276L58.7304 150.362L121.592 150.362L121.592 67.531L109.02 67.531C109.718 59.4414 110.417 54.5172 111.115 52.7586C111.115 52.4069 111.29 51.3517 111.639 49.5931C111.988 48.1862 112.687 46.6034 113.735 44.8448C114.782 43.0862 116.354 41.5034 118.449 40.0965C120.195 38.6896 122.815 37.9862 126.307 37.9862L126.307 -4.13104e-05C109.544 1.05513 97.146 3.5172 89.1137 7.38617C81.0813 11.2551 74.6205 17.0586 69.7313 24.7965C65.8897 31.831 63.0959 39.7448 61.3497 48.5379C59.6035 57.331 58.7304 66.8276 58.7304 77.0276ZM181.311 77.0276L181.311 150.362L244.173 150.362L244.173 67.531L231.601 67.531C232.299 59.4414 232.997 54.5172 233.696 52.7586C233.696 52.4069 233.871 51.3517 234.22 49.5931C234.569 48.1862 235.267 46.6034 236.315 44.8448C237.363 43.0862 238.934 41.5034 241.03 40.0965C242.776 38.6896 245.395 37.9862 248.888 37.9862L248.888 -3.05176e-05C232.124 1.05514 219.727 3.51721 211.694 7.38618C203.662 11.2551 197.201 17.0586 192.312 24.7965C188.47 31.831 185.676 39.7448 183.93 48.5379C182.184 57.331 181.311 66.8276 181.311 77.0276Z" fill="#FFCE07" fill-opacity="0.2" shape-rendering="crispEdges"/>
</g>
<path d="M1429 483.269V409.934H1366.14V492.765H1378.71C1378.01 500.855 1377.31 505.779 1376.62 507.538C1376.62 507.89 1376.44 508.945 1376.09 510.703C1375.74 512.11 1375.04 513.693 1374 515.452C1372.95 517.21 1371.38 518.793 1369.28 520.2C1367.54 521.607 1364.92 522.31 1361.42 522.31V560.297C1378.19 559.241 1390.58 556.779 1398.62 552.91C1406.65 549.041 1413.11 543.238 1418 535.5C1421.84 528.465 1424.63 520.552 1426.38 511.759C1428.13 502.965 1429 493.469 1429 483.269ZM1306.42 483.269V409.934H1243.56V492.765H1256.13C1255.43 500.855 1254.73 505.779 1254.03 507.538C1254.03 507.89 1253.86 508.945 1253.51 510.703C1253.16 512.11 1252.46 513.693 1251.42 515.452C1250.37 517.21 1248.8 518.793 1246.7 520.2C1244.95 521.607 1242.34 522.31 1238.84 522.31V560.297C1255.61 559.241 1268 556.779 1276.04 552.91C1284.07 549.041 1290.53 543.238 1295.42 535.5C1299.26 528.465 1302.05 520.552 1303.8 511.759C1305.55 502.965 1306.42 493.469 1306.42 483.269Z" fill="#FFCE07" fill-opacity="0.2"/>
<path d="M709.291 148.252C709.291 150.874 707.18 153 704.577 153C701.973 153 699.862 150.874 699.862 148.252C699.862 145.629 701.973 143.503 704.577 143.503C707.18 143.503 709.291 145.629 709.291 148.252Z" fill="#FFCE07"/>
<path d="M709.291 188.348C709.291 190.971 707.18 193.097 704.577 193.097C701.973 193.097 699.862 190.971 699.862 188.348C699.862 185.726 701.973 183.6 704.577 183.6C707.18 183.6 709.291 185.726 709.291 188.348Z" fill="#FFCE07"/>
<path d="M709.291 168.3C709.291 170.922 707.18 173.048 704.577 173.048C701.973 173.048 699.862 170.922 699.862 168.3C699.862 165.678 701.973 163.552 704.577 163.552C707.18 163.552 709.291 165.678 709.291 168.3Z" fill="#FFCE07"/>
<path d="M709.291 208.397C709.291 211.019 707.18 213.145 704.577 213.145C701.973 213.145 699.862 211.019 699.862 208.397C699.862 205.774 701.973 203.648 704.577 203.648C707.18 203.648 709.291 205.774 709.291 208.397Z" fill="#FFCE07"/>
<path d="M759.581 148.252C759.581 150.874 757.47 153 754.866 153C752.262 153 750.151 150.874 750.151 148.252C750.151 145.629 752.262 143.503 754.866 143.503C757.47 143.503 759.581 145.629 759.581 148.252Z" fill="#FFCE07"/>
<path d="M759.581 188.348C759.581 190.971 757.47 193.097 754.866 193.097C752.262 193.097 750.151 190.971 750.151 188.348C750.151 185.726 752.262 183.6 754.866 183.6C757.47 183.6 759.581 185.726 759.581 188.348Z" fill="#FFCE07"/>
<path d="M759.581 168.3C759.581 170.922 757.47 173.048 754.866 173.048C752.262 173.048 750.151 170.922 750.151 168.3C750.151 165.678 752.262 163.552 754.866 163.552C757.47 163.552 759.581 165.678 759.581 168.3Z" fill="#FFCE07"/>
<path d="M759.581 208.397C759.581 211.019 757.47 213.145 754.866 213.145C752.262 213.145 750.151 211.019 750.151 208.397C750.151 205.774 752.262 203.648 754.866 203.648C757.47 203.648 759.581 205.774 759.581 208.397Z" fill="#FFCE07"/>
<path d="M734.436 148.252C734.436 150.874 732.325 153 729.721 153C727.117 153 725.007 150.874 725.007 148.252C725.007 145.629 727.117 143.503 729.721 143.503C732.325 143.503 734.436 145.629 734.436 148.252Z" fill="#FFCE07"/>
<path d="M734.436 188.348C734.436 190.971 732.325 193.097 729.721 193.097C727.117 193.097 725.007 190.971 725.007 188.348C725.007 185.726 727.117 183.6 729.721 183.6C732.325 183.6 734.436 185.726 734.436 188.348Z" fill="#FFCE07"/>
<path d="M734.436 168.3C734.436 170.922 732.325 173.048 729.721 173.048C727.117 173.048 725.007 170.922 725.007 168.3C725.007 165.678 727.117 163.552 729.721 163.552C732.325 163.552 734.436 165.678 734.436 168.3Z" fill="#FFCE07"/>
<path d="M734.436 208.397C734.436 211.019 732.325 213.145 729.721 213.145C727.117 213.145 725.007 211.019 725.007 208.397C725.007 205.774 727.117 203.648 729.721 203.648C732.325 203.648 734.436 205.774 734.436 208.397Z" fill="#FFCE07"/>
<path d="M784.725 148.252C784.725 150.874 782.615 153 780.011 153C777.407 153 775.296 150.874 775.296 148.252C775.296 145.629 777.407 143.503 780.011 143.503C782.615 143.503 784.725 145.629 784.725 148.252Z" fill="#FFCE07"/>
<path d="M784.725 188.348C784.725 190.971 782.615 193.097 780.011 193.097C777.407 193.097 775.296 190.971 775.296 188.348C775.296 185.726 777.407 183.6 780.011 183.6C782.615 183.6 784.725 185.726 784.725 188.348Z" fill="#FFCE07"/>
<path d="M784.725 168.3C784.725 170.922 782.615 173.048 780.011 173.048C777.407 173.048 775.296 170.922 775.296 168.3C775.296 165.678 777.407 163.552 780.011 163.552C782.615 163.552 784.725 165.678 784.725 168.3Z" fill="#FFCE07"/>
<path d="M784.725 208.397C784.725 211.019 782.615 213.145 780.011 213.145C777.407 213.145 775.296 211.019 775.296 208.397C775.296 205.774 777.407 203.648 780.011 203.648C782.615 203.648 784.725 205.774 784.725 208.397Z" fill="#FFCE07"/>
<path d="M9.42928 547.107C9.42928 549.729 7.31846 551.855 4.71464 551.855C2.11082 551.855 0 549.729 0 547.107C0 544.485 2.11082 542.359 4.71464 542.359C7.31846 542.359 9.42928 544.485 9.42928 547.107Z" fill="#C4C4C4"/>
<path d="M9.42928 587.203C9.42928 589.826 7.31846 591.952 4.71464 591.952C2.11082 591.952 0 589.826 0 587.203C0 584.581 2.11082 582.455 4.71464 582.455C7.31846 582.455 9.42928 584.581 9.42928 587.203Z" fill="#C4C4C4"/>
<path d="M9.42928 567.155C9.42928 569.778 7.31846 571.903 4.71464 571.903C2.11082 571.903 0 569.778 0 567.155C0 564.533 2.11082 562.407 4.71464 562.407C7.31846 562.407 9.42928 564.533 9.42928 567.155Z" fill="#C4C4C4"/>
<path d="M9.42928 607.252C9.42928 609.874 7.31846 612 4.71464 612C2.11082 612 0 609.874 0 607.252C0 604.629 2.11082 602.503 4.71464 602.503C7.31846 602.503 9.42928 604.629 9.42928 607.252Z" fill="#C4C4C4"/>
<path d="M59.7188 547.107C59.7188 549.729 57.608 551.855 55.0041 551.855C52.4003 551.855 50.2895 549.729 50.2895 547.107C50.2895 544.485 52.4003 542.359 55.0041 542.359C57.608 542.359 59.7188 544.485 59.7188 547.107Z" fill="#C4C4C4"/>
<path d="M59.7188 587.203C59.7188 589.826 57.608 591.952 55.0041 591.952C52.4003 591.952 50.2895 589.826 50.2895 587.203C50.2895 584.581 52.4003 582.455 55.0041 582.455C57.608 582.455 59.7188 584.581 59.7188 587.203Z" fill="#C4C4C4"/>
<path d="M59.7188 567.155C59.7188 569.778 57.608 571.903 55.0041 571.903C52.4003 571.903 50.2895 569.778 50.2895 567.155C50.2895 564.533 52.4003 562.407 55.0041 562.407C57.608 562.407 59.7188 564.533 59.7188 567.155Z" fill="#C4C4C4"/>
<path d="M59.7188 607.252C59.7188 609.874 57.608 612 55.0041 612C52.4003 612 50.2895 609.874 50.2895 607.252C50.2895 604.629 52.4003 602.503 55.0041 602.503C57.608 602.503 59.7188 604.629 59.7188 607.252Z" fill="#C4C4C4"/>
<path d="M34.574 547.107C34.574 549.729 32.4632 551.855 29.8594 551.855C27.2555 551.855 25.1447 549.729 25.1447 547.107C25.1447 544.485 27.2555 542.359 29.8594 542.359C32.4632 542.359 34.574 544.485 34.574 547.107Z" fill="#C4C4C4"/>
<path d="M34.574 587.203C34.574 589.826 32.4632 591.952 29.8594 591.952C27.2555 591.952 25.1447 589.826 25.1447 587.203C25.1447 584.581 27.2555 582.455 29.8594 582.455C32.4632 582.455 34.574 584.581 34.574 587.203Z" fill="#C4C4C4"/>
<path d="M34.574 567.155C34.574 569.778 32.4632 571.903 29.8594 571.903C27.2555 571.903 25.1447 569.778 25.1447 567.155C25.1447 564.533 27.2555 562.407 29.8594 562.407C32.4632 562.407 34.574 564.533 34.574 567.155Z" fill="#C4C4C4"/>
<path d="M34.574 607.252C34.574 609.874 32.4632 612 29.8594 612C27.2555 612 25.1447 609.874 25.1447 607.252C25.1447 604.629 27.2555 602.503 29.8594 602.503C32.4632 602.503 34.574 604.629 34.574 607.252Z" fill="#C4C4C4"/>
<path d="M84.8635 547.107C84.8635 549.729 82.7527 551.855 80.1488 551.855C77.545 551.855 75.4342 549.729 75.4342 547.107C75.4342 544.485 77.545 542.359 80.1488 542.359C82.7527 542.359 84.8635 544.485 84.8635 547.107Z" fill="#C4C4C4"/>
<path d="M84.8635 587.203C84.8635 589.826 82.7527 591.952 80.1488 591.952C77.545 591.952 75.4342 589.826 75.4342 587.203C75.4342 584.581 77.545 582.455 80.1488 582.455C82.7527 582.455 84.8635 584.581 84.8635 587.203Z" fill="#C4C4C4"/>
<path d="M84.8635 567.155C84.8635 569.778 82.7527 571.903 80.1488 571.903C77.545 571.903 75.4342 569.778 75.4342 567.155C75.4342 564.533 77.545 562.407 80.1488 562.407C82.7527 562.407 84.8635 564.533 84.8635 567.155Z" fill="#C4C4C4"/>
<path d="M84.8635 607.252C84.8635 609.874 82.7527 612 80.1488 612C77.545 612 75.4342 609.874 75.4342 607.252C75.4342 604.629 77.545 602.503 80.1488 602.503C82.7527 602.503 84.8635 604.629 84.8635 607.252Z" fill="#C4C4C4"/>
<defs>
<filter id="filter0_d_1280_8" x="54.7304" y="0" width="198.157" height="158.362" filterUnits="userSpaceOnUse" color-interpolation-filters="sRGB">
<feFlood flood-opacity="0" result="BackgroundImageFix"/>
<feColorMatrix in="SourceAlpha" type="matrix" values="0 0 0 0 0 0 0 0 0 0 0 0 0 0 0 0 0 0 127 0" result="hardAlpha"/>
<feOffset dy="4"/>
<feGaussianBlur stdDeviation="2"/>
<feComposite in2="hardAlpha" operator="out"/>
<feColorMatrix type="matrix" values="0 0 0 0 0 0 0 0 0 0 0 0 0 0 0 0 0 0 0.25 0"/>
<feBlend mode="normal" in2="BackgroundImageFix" result="effect1_dropShadow_1280_8"/>
<feBlend mode="normal" in="SourceGraphic" in2="effect1_dropShadow_1280_8" result="shape"/>
</filter>
</defs>
</svg>
